{"title":"The.Man.in.the.High.Castle.S01.2160p.WEBRip.DD5.1.x264-TrollUHD","uid":15802522,"size":114872737235,"categoryP":"video","categoryS":"hd___tv_shows","magnet":"?xt=urn:btih:bfef33442ff46f09b2b2adc1fe785e7ce55af2f6&amp;dn=The.Man.in.the.High.Castle.S01.2160p.WEBRip.DD5.1.x264-TrollUHD&amp;tr=udp%3A%2F%2Ftracker.leechers-paradise.org%3A6969&amp;tr=udp%3A%2F%2Fzer0day.ch%3A1337&amp;tr=udp%3A%2F%2Fopen.demonii.com%3A1337&amp;tr=udp%3A%2F%2Ftracker.coppersurfer.tk%3A6969&amp;tr=udp%3A%2F%2Fexodus.desync.com%3A6969","seeders":0,"leechers":6,"uploader":"BreexeOX","files":10,"time":1473525514,"description":"For the sake of sharing please stay and seed, atleast for a while! Others also want this. \r\nMy bandwidth cant stand with good speed to everyone alone at such big files. \r\n\r\n\r\n\r\nGeneral\r\nFormat                         : Matroska\r\nFormat version                 : Version 4 / Version 2\r\nFile size                      : 12.4 GiB\r\nDuration                       : 1 h 0 min\r\nOverall bit rate               : 29.6 Mb/s\r\nEncoded date                   : UTC 2016-03-12 03:28:35\r\nWriting application            : mkvmerge v8.3.0 ('Over the Horizon') 64bit\r\nWriting library                : libebml v1.3.1 + libmatroska v1.4.2\r\n\r\nVideo\r\nID                             : 1\r\nFormat                         : AVC\r\nFormat/Info                    : Advanced Video Codec\r\nFormat profile                 :   \r\nFormat settings, CABAC         : Yes\r\nFormat settings, ReFrames      : 5 frames\r\nCodec ID                       : V_MPEG4/ISO/AVC\r\nDuration                       : 1 h 0 min\r\nBit rate                       : 28.9 Mb/s\r\nWidth                          : 3 840 pixels\r\nHeight                         : 2 160 pixels\r\nDisplay aspect ratio           : 16:9\r\nFrame rate mode                : Constant\r\nFrame rate                     : 23.976 (24000/1001) FPS\r\nColor space                    : YUV\r\nChroma subsampling             : 4:2:0\r\nBit depth                      : 8 bits\r\nScan type                      : Progressive\r\nBits/(Pixel*Frame)             : 0.146\r\nStream size                    : 12.2 GiB (98%)\r\nWriting library                : x264 core 148 r2638 7599210\r\nDefault                        : Yes\r\nForced                         : No\r\n\r\nAudio\r\nID                             : 2\r\nFormat                         : AC-3\r\nFormat/Info                    : Audio Coding 3\r\nMode extension                 : CM (complete main)\r\nFormat settings, Endianness    : Big\r\nCodec ID                       : A_AC3\r\nDuration                       : 1 h 0 min\r\nBit rate mode                  : Constant\r\nBit rate                       : 640 kb/s\r\nChannel(s)                     : 6 channels\r\nChannel positions              : Front: L C R, Side: L R, LFE\r\nSampling rate                  : 48.0 kHz\r\nFrame rate                     : 31.250 FPS (1536 spf)\r\nCompression mode               : Lossy\r\nStream size                    : 275 MiB (2%)\r\nLanguage                       : English\r\nDefault                        : Yes\r\nForced                         : No\r\n\r\nText\r\nID                             : 3\r\nFormat                         : UTF-8\r\nCodec ID                       : S_TEXT/UTF8\r\nCodec ID/Info                  : UTF-8 Plain Text\r\nDuration                       : 58 min\r\nBit rate                       : 50 b/s\r\nCount of elements              : 721\r\nStream size                    : 21.6 KiB (0%)\r\nLanguage                       : English\r\nDefault                        : No\r\nForced                         : No","torrent":{"xt":"urn:btih:bfef33442ff46f09b2b2adc1fe785e7ce55af2f6","amp;dn":"The.Man.in.the.High.Castle.S01.2160p.WEBRip.DD5.1.x264-TrollUHD","amp;tr":["udp%3A%2F%2Ftracker.leechers-paradise.org%3A6969","udp%3A%2F%2Fzer0day.ch%3A1337","udp%3A%2F%2Fopen.demonii.com%3A1337","udp%3A%2F%2Ftracker.coppersurfer.tk%3A6969","udp%3A%2F%2Fexodus.desync.com%3A6969"],"infoHash":"bfef33442ff46f09b2b2adc1fe785e7ce55af2f6","infoHashBuffer":{"type":"Buffer","data":[191,239,51,68,47,244,111,9,178,178,173,193,254,120,94,124,229,90,242,246]},"announce":[],"urlList":[]}}